Coordinates
version=1
nRows=34
nColumns=38
inDegrees=no

Units are S.I. units (second, meters, Newtons, ...)
If the header above contains a line with 'inDegrees', this indicates whether rotational values are in degrees (yes) or radians (no).

endheader
time	pelvis_tilt	pelvis_list	pelvis_rotation	pelvis_tx	pelvis_ty	pelvis_tz	hip_flexion_r	hip_adduction_r	hip_rotation_r	knee_angle_r	ankle_angle_r	subtalar_angle_r	mtp_angle_r	hip_flexion_l	hip_adduction_l	hip_rotation_l	knee_angle_l	ankle_angle_l	subtalar_angle_l	mtp_angle_l	lumbar_extension	lumbar_bending	lumbar_rotation	arm_flex_r	arm_add_r	arm_rot_r	elbow_flex_r	pro_sup_r	wrist_flex_r	wrist_dev_r	arm_flex_l	arm_add_l	arm_rot_l	elbow_flex_l	pro_sup_l	wrist_flex_l	wrist_dev_l
1.37	2.05986	1.42485	-0.439002	0.742489	0.309613	0.926302	0.308592	0.111614	-0.298311	0.290406	-0.0571535	0	0	-0.309556	-0.234015	-0.328871	0.553281	0.0480678	0	0	-0.231575	0.164334	0.036554	0.0351548	-0.328284	0.969609	0.371246	0.677947	0	0	0.0622092	-0.14509	0.0260526	0.267681	1.5708	0	0
1.38	1.97071	1.42285	-0.352004	0.745001	0.321295	0.925828	0.312114	0.122765	-0.298642	0.297468	-0.0530762	0	0	-0.268134	-0.258714	-0.317707	0.619702	-0.00302393	0	0	-0.216648	0.171507	0.0356767	0.0307384	-0.33057	0.980783	0.376635	0.666971	0	0	0.0496967	-0.146384	0.0151586	0.277041	1.5708	0	0
1.39	1.88998	1.42002	-0.273345	0.747451	0.332611	0.925393	0.312968	0.134921	-0.296832	0.300169	-0.0502163	0	0	-0.223789	-0.280982	-0.299191	0.687922	-0.0603967	0	0	-0.202972	0.177757	0.0358173	0.0240439	-0.32866	0.960139	0.375447	0.701635	0	0	0.037771	-0.149405	0.0156186	0.289033	1.5708	0	0
1.4	1.8318	1.41521	-0.21614	0.749747	0.343551	0.925305	0.30882	0.148406	-0.292697	0.298711	-0.0480202	0	0	-0.179084	-0.301427	-0.2737	0.757272	-0.122285	0	0	-0.193212	0.184659	0.0337913	0.0228486	-0.334671	0.988164	0.38628	0.661959	0	0	0.0274144	-0.151199	0.00328906	0.299473	1.5708	0	0
1.41	1.8537	1.41607	-0.237925	0.75212	0.353638	0.927129	0.293441	0.153275	-0.284893	0.297188	-0.0450376	0	0	-0.143248	-0.319345	-0.266865	0.824641	-0.189164	0	0	-0.19819	0.180879	0.032492	0.0238659	-0.331888	0.9873	0.386664	0.664554	0	0	0.0238874	-0.155983	-0.000353724	0.306867	1.5708	0	0
1.42	1.78796	1.40607	-0.174716	0.75378	0.364524	0.926361	0.291712	0.170344	-0.2807	0.29998	-0.0371896	0	0	-0.0944794	-0.329821	-0.214671	0.894901	-0.229499	0	0	-0.186824	0.194028	0.0348659	0.0180119	-0.338584	0.984436	0.396042	0.67144	0	0	0.0138796	-0.156024	-0.00191502	0.316165	1.5708	0	0
1.43	1.79923	1.40375	-0.188499	0.755622	0.374487	0.927625	0.278468	0.177178	-0.272414	0.301956	-0.029184	0	0	-0.0567059	-0.335926	-0.185776	0.961315	-0.277121	0	0	-0.19029	0.194722	0.0378164	0.0175795	-0.33902	0.979367	0.397886	0.67981	0	0	0.00971265	-0.158626	-0.0019852	0.324251	1.5708	0	0
1.44	1.82412	1.40311	-0.216982	0.757454	0.384096	0.929265	0.263484	0.181115	-0.264287	0.304609	-0.0201877	0	0	-0.0210862	-0.337116	-0.157712	1.02788	-0.316739	0	0	-0.196817	0.192664	0.042246	0.0183158	-0.338098	0.973613	0.397691	0.688666	0	0	0.00722129	-0.161134	-0.00141829	0.332085	1.5708	0	0
1.45	1.85052	1.40327	-0.247164	0.759118	0.393466	0.930997	0.24827	0.183363	-0.256988	0.306936	-0.0119108	0	0	0.0154127	-0.335457	-0.128276	1.09813	-0.334482	0	0	-0.20365	0.189743	0.0471538	0.0197409	-0.337437	0.970065	0.397482	0.694966	0	0	0.00623172	-0.162641	-0.00142356	0.337987	1.5708	0	0
1.46	1.87376	1.40389	-0.275184	0.760743	0.402734	0.932739	0.231797	0.18589	-0.24681	0.305395	-0.00605905	0	0	0.0524034	-0.332454	-0.100383	1.16932	-0.327586	0	0	-0.209619	0.186367	0.0532606	0.0211055	-0.336438	0.966422	0.396246	0.700629	0	0	0.00603916	-0.163127	-0.00127257	0.342299	1.5708	0	0
1.47	1.89194	1.40536	-0.29941	0.762467	0.411915	0.934416	0.215442	0.187906	-0.23581	0.301838	-0.00088256	0	0	0.0896087	-0.32813	-0.0761971	1.23815	-0.304304	0	0	-0.214285	0.181923	0.0604415	0.0223884	-0.334416	0.960775	0.393559	0.707929	0	0	0.00593115	-0.163181	-0.000676532	0.346224	1.5708	0	0
1.48	1.90787	1.40769	-0.322281	0.76425	0.420982	0.935982	0.199514	0.188797	-0.227515	0.297906	0.0039958	0	0	0.126734	-0.322538	-0.0559849	1.30356	-0.276079	0	0	-0.218126	0.17652	0.0685236	0.0236112	-0.331947	0.954974	0.390225	0.717238	0	0	0.00634564	-0.162927	0.000887923	0.349155	1.5708	0	0
1.49	1.92104	1.41002	-0.34223	0.765975	0.429948	0.937484	0.182559	0.190083	-0.219572	0.290572	0.00753058	0	0	0.16359	-0.31669	-0.0381747	1.36409	-0.249223	0	0	-0.220796	0.171703	0.0756793	0.0279301	-0.334251	0.984806	0.393261	0.670775	0	0	0.00727401	-0.161594	-0.000933208	0.348688	1.5708	0	0
1.5	1.93967	1.41325	-0.368431	0.76771	0.438819	0.939015	0.165238	0.189721	-0.212659	0.283552	0.0110211	0	0	0.19806	-0.30883	-0.0231909	1.41801	-0.227822	0	0	-0.224036	0.165356	0.0847925	0.0295443	-0.331749	0.984813	0.389089	0.671169	0	0	0.00948577	-0.160328	0.000380406	0.347903	1.5708	0	0
1.51	1.9599	1.41614	-0.396332	0.769372	0.447587	0.940543	0.147085	0.189414	-0.205353	0.274956	0.0130336	0	0	0.231116	-0.300651	-0.00989484	1.46601	-0.210824	0	0	-0.227372	0.159424	0.094433	0.0312573	-0.329104	0.984123	0.383873	0.67227	0	0	0.0127599	-0.158583	0.00135373	0.34601	1.5708	0	0
1.52	1.98384	1.41935	-0.428365	0.771009	0.456236	0.942074	0.129003	0.18812	-0.197376	0.266846	0.0162744	0	0	0.262508	-0.291523	0.00126852	1.50799	-0.195939	0	0	-0.230925	0.152905	0.104744	0.0329061	-0.326864	0.982442	0.379232	0.674297	0	0	0.0169167	-0.156887	0.00285569	0.34366	1.5708	0	0
1.53	2.01212	1.42302	-0.465461	0.772637	0.464817	0.943593	0.110833	0.185543	-0.188282	0.258958	0.0206736	0	0	0.292347	-0.282015	0.00913969	1.54402	-0.181237	0	0	-0.234516	0.145572	0.115653	0.0344512	-0.325297	0.979537	0.375473	0.677849	0	0	0.0213035	-0.155336	0.00488149	0.341857	1.5708	0	0
1.54	2.04385	1.4266	-0.506468	0.774229	0.473292	0.945084	0.0926595	0.182274	-0.178869	0.251261	0.0249535	0	0	0.320782	-0.272727	0.0142937	1.5744	-0.165559	0	0	-0.238292	0.138073	0.126854	0.0359692	-0.324352	0.974781	0.372314	0.684395	0	0	0.0263098	-0.153917	0.00715391	0.338757	1.5708	0	0
1.55	2.08648	1.43018	-0.558955	0.775782	0.48175	0.946656	0.0735679	0.177714	-0.168211	0.244	0.0280313	0	0	0.346329	-0.263847	0.0156167	1.59876	-0.148931	0	0	-0.242997	0.129571	0.138406	0.037375	-0.323444	0.967942	0.369015	0.693582	0	0	0.0317721	-0.15278	0.00980704	0.33481	1.5708	0	0
1.56	2.13614	1.43317	-0.618359	0.77723	0.490295	0.948248	0.05366	0.172434	-0.15732	0.236535	0.0312985	0	0	0.369489	-0.255716	0.0146997	1.61749	-0.131703	0	0	-0.247988	0.120904	0.14945	0.0381422	-0.322954	0.956599	0.366781	0.707058	0	0	0.0364447	-0.152322	0.0133331	0.332116	1.5708	0	0
1.57	2.18206	1.43658	-0.675018	0.778728	0.498992	0.949652	0.0355799	0.166368	-0.146637	0.230586	0.0357689	0	0	0.391752	-0.248065	0.0111348	1.63079	-0.113483	0	0	-0.251065	0.111827	0.160785	0.0378959	-0.322618	0.941683	0.365228	0.7257	0	0	0.0391445	-0.152722	0.0193859	0.33268	1.5708	0	0
1.58	2.2298	1.4387	-0.731473	0.780081	0.507637	0.951005	0.0154302	0.161144	-0.135706	0.220849	0.037797	0	0	0.413478	-0.240713	0.00850789	1.63964	-0.0954286	0	0	-0.254279	0.104188	0.168553	0.0415307	-0.330047	0.97257	0.376087	0.676825	0	0	0.0427574	-0.152138	0.0161986	0.328074	1.5708	0	0
1.59	2.28399	1.44008	-0.792535	0.78134	0.516167	0.952399	-0.00590712	0.1557	-0.126224	0.209755	0.0389903	0	0	0.43417	-0.232586	0.00658107	1.64383	-0.0782624	0	0	-0.258587	0.0961497	0.174886	0.0433805	-0.330922	0.968129	0.377477	0.681246	0	0	0.046237	-0.153162	0.0196459	0.326183	1.5708	0	0
1.6	2.32228	1.44047	-0.837365	0.78257	0.524868	0.953407	-0.026428	0.152262	-0.116903	0.198452	0.041127	0	0	0.459082	-0.227773	0.00578272	1.64812	-0.0650634	0	0	-0.260904	0.090418	0.180585	0.0448208	-0.3317	0.964846	0.378698	0.686412	0	0	0.048581	-0.153765	0.0213289	0.324872	1.5708	0	0
1.61	2.39711	1.44178	-0.91748	0.783866	0.533076	0.954949	-0.048398	0.144076	-0.108928	0.187391	0.0428938	0	0	0.471771	-0.216615	0.00150211	1.63767	-0.0499183	0	0	-0.266875	0.0793821	0.183708	0.0493163	-0.330144	0.96355	0.377754	0.690489	0	0	0.0529923	-0.155306	0.0216288	0.323352	1.5708	0	0
1.62	2.44922	1.44212	-0.974362	0.784998	0.541495	0.956003	-0.0693993	0.138623	-0.100882	0.175075	0.0436409	0	0	0.488743	-0.212011	-0.00438627	1.62692	-0.0454946	0	0	-0.27033	0.0717676	0.186322	0.0531309	-0.329882	0.963726	0.378061	0.695089	0	0	0.0562797	-0.156018	0.0217398	0.321491	1.5708	0	0
1.63	2.5007	1.44212	-1.02989	0.786103	0.549848	0.957	-0.089372	0.13318	-0.0942213	0.16412	0.0450255	0	0	0.503769	-0.208034	-0.0113018	1.61071	-0.0428017	0	0	-0.273924	0.0643218	0.187883	0.0575168	-0.329103	0.962327	0.377933	0.700698	0	0	0.0599339	-0.156907	0.0227566	0.317718	1.5708	0	0
1.64	2.56057	1.44138	-1.0931	0.78718	0.558143	0.958027	-0.110088	0.126688	-0.0880367	0.153212	0.0477201	0	0	0.515695	-0.202945	-0.0187684	1.58919	-0.0375464	0	0	-0.278713	0.0559846	0.188396	0.0623774	-0.326891	0.959527	0.375955	0.709015	0	0	0.0642503	-0.157864	0.0240326	0.313733	1.5708	0	0
1.65	2.62508	1.44019	-1.16074	0.788246	0.566384	0.958994	-0.130827	0.119166	-0.0827714	0.142652	0.0508925	0	0	0.525179	-0.197468	-0.0274285	1.56298	-0.0304095	0	0	-0.284112	0.0467343	0.188629	0.0674016	-0.323686	0.955624	0.372685	0.719439	0	0	0.068778	-0.159019	0.027295	0.310502	1.5708	0	0
1.66	2.68655	1.43909	-1.22599	0.789386	0.574551	0.959779	-0.150398	0.111439	-0.077764	0.132783	0.0537066	0	0	0.533115	-0.193067	-0.0382699	1.53231	-0.020885	0	0	-0.289	0.037108	0.189471	0.0720879	-0.320095	0.949118	0.369452	0.732135	0	0	0.0729854	-0.160659	0.0343803	0.308705	1.5708	0	0
1.67	2.74392	1.43635	-1.28757	0.790519	0.582707	0.960588	-0.171904	0.104541	-0.0700914	0.121108	0.0546768	0	0	0.53723	-0.190593	-0.0511696	1.49678	-0.0102867	0	0	-0.294944	0.0285897	0.189389	0.08036	-0.323103	0.985633	0.376148	0.677764	0	0	0.0809948	-0.158675	0.0205118	0.295402	1.5708	0	0
1.68	2.7968	1.43349	-1.3444	0.791583	0.590803	0.961269	-0.191011	0.0973762	-0.0657381	0.113041	0.05714	0	0	0.539288	-0.188493	-0.0651734	1.45619	-0.000730981	0	0	-0.300771	0.0201168	0.190299	0.0859283	-0.320248	0.98688	0.373294	0.678677	0	0	0.0878651	-0.158698	0.020254	0.286997	1.5708	0	0
1.69	2.84702	1.43005	-1.3983	0.792591	0.598938	0.961852	-0.20978	0.0900788	-0.0624473	0.105875	0.060487	0	0	0.538247	-0.186451	-0.0805059	1.41038	0.00769508	0	0	-0.306676	0.0118677	0.19112	0.0916033	-0.317278	0.988191	0.369849	0.678941	0	0	0.0944245	-0.158952	0.0210529	0.279148	1.5708	0	0
1.7	2.89147	1.42635	-1.44676	0.793619	0.607142	0.962249	-0.227973	0.0831129	-0.0589943	0.0995072	0.0656867	0	0	0.534543	-0.186233	-0.098692	1.36034	0.0153463	0	0	-0.312119	0.00399507	0.192605	0.0969569	-0.314755	0.989737	0.366854	0.679945	0	0	0.10036	-0.159334	0.0229005	0.272797	1.5708	0	0
